<svg width="463" height="303" viewBox="0 0 463 303" fill="none" xmlns="http://www.w3.org/2000/svg">
<path fill-rule="evenodd" clip-rule="evenodd" d="M463 12V257.446L384.508 303H0V12H463Z" fill="#22342E"/>
<path d="M53.432 189.6H43.1V247H53.596C58.762 247 63.026 242.736 63.026 237.57V199.276C63.026 193.946 58.762 189.6 53.432 189.6ZM57.532 237.57C57.532 239.702 55.81 241.506 53.596 241.506H48.512V195.094H53.432C55.728 195.094 57.532 196.98 57.532 199.276V237.57ZM79.4074 247H94.5774V241.506H84.9014V221.744H91.9534V216.25H84.9014V195.012H94.5774V189.6H79.4074V247ZM129.194 189.6L122.88 229.698L116.566 189.6H110.99L120.01 247H125.668L134.688 189.6H129.194ZM151.061 247H166.231V241.506H156.555V221.744H163.607V216.25H156.555V195.012H166.231V189.6H151.061V247ZM188.138 189.6H182.644V247H199.782V241.506H188.138V189.6ZM227.629 189.518H225.825C220.495 189.518 216.149 193.864 216.149 199.112V237.898C216.149 243.146 220.495 247.492 225.825 247.492H227.629C232.959 247.492 237.223 243.146 237.223 237.898V199.112C237.223 193.864 232.959 189.518 227.629 189.518ZM231.811 237.898C231.811 240.194 229.925 241.998 227.629 241.998H225.825C223.529 241.998 221.643 240.194 221.643 237.898V199.112C221.643 196.816 223.529 195.012 225.825 195.012H227.629C229.925 195.012 231.811 196.816 231.811 199.112V237.898ZM263.743 189.6H253.657V247H259.151V221.498H263.743C268.991 221.498 273.337 217.152 273.337 211.822V199.194C273.337 193.864 268.991 189.6 263.743 189.6ZM267.843 211.822C267.843 214.118 266.039 216.004 263.743 216.004H259.151V195.012H263.743C266.039 195.012 267.843 196.898 267.843 199.194V211.822ZM313.095 189.6L304.239 237.488L295.383 189.6H289.725V247H295.219V213.708L301.287 247H307.109L313.259 213.708V247H318.753V189.6H313.095ZM335.161 247H350.331V241.506H340.655V221.744H347.707V216.25H340.655V195.012H350.331V189.6H335.161V247ZM390.114 247V189.6H384.62V228.96L372.402 189.846H366.744V247H372.238V207.476L384.538 247H390.114ZM404.893 195.012H413.339V247H418.751V195.012H427.197V189.6H404.893V195.012Z" fill="#F4C85F"/>
<path d="M60.966 46.926H59.228C49.116 46.926 40.9 55.142 40.9 65.254V140.462C40.9 150.732 49.116 158.948 59.228 158.948H61.282C71.394 158.948 79.768 150.732 79.768 140.462V98.75H62.862V109.336H69.182V140.462C69.182 144.886 65.706 148.362 61.282 148.362H59.228C54.962 148.362 51.328 144.886 51.328 140.462V65.254C51.328 60.988 54.962 57.354 59.228 57.354H60.966C65.548 57.354 69.182 61.146 69.182 65.57V70.942H79.768V65.57C79.768 55.3 71.394 46.926 60.966 46.926ZM133.441 47.242H129.965C119.695 47.242 111.321 55.616 111.321 65.728V140.462C111.321 150.574 119.695 158.948 129.965 158.948H133.441C143.711 158.948 151.927 150.574 151.927 140.462V65.728C151.927 55.616 143.711 47.242 133.441 47.242ZM141.499 140.462C141.499 144.886 137.865 148.362 133.441 148.362H129.965C125.541 148.362 121.907 144.886 121.907 140.462V65.728C121.907 61.304 125.541 57.828 129.965 57.828H133.441C137.865 57.828 141.499 61.304 141.499 65.728V140.462ZM200.5 135.722C191.178 135.722 183.594 128.138 183.594 118.816V63.2C183.594 54.036 191.178 46.452 200.5 46.452C209.822 46.452 217.406 54.036 217.406 63.2V118.816C217.406 128.138 209.822 135.722 200.5 135.722ZM200.5 56.88C196.866 56.88 194.022 59.724 194.022 63.2V118.816C194.022 122.292 196.866 125.136 200.5 125.136C204.134 125.136 206.978 122.292 206.978 118.816V63.2C206.978 59.724 204.134 56.88 200.5 56.88ZM183.594 147.414V158H217.406V147.414H183.594ZM268.985 47.4H249.077V158H269.301C279.255 158 287.471 149.784 287.471 139.83V66.044C287.471 55.774 279.255 47.4 268.985 47.4ZM276.885 139.83C276.885 143.938 273.567 147.414 269.301 147.414H259.505V57.986H268.985C273.409 57.986 276.885 61.62 276.885 66.044V139.83ZM329.622 47.4H319.036V158H352.058V147.414H329.622V47.4ZM411.51 47.4L397.606 86.584L383.702 47.4H372.484L392.392 103.332V158H402.82V103.332L422.728 47.4H411.51Z" fill="#F4C85F"/>
</svg>
