<svg width="510" height="306" viewBox="0 0 510 306" fill="none" xmlns="http://www.w3.org/2000/svg">
<g clip-path="url(#clip0_852_53)">
<path d="M57.506 48.866H55.548C44.156 48.866 34.9 58.122 34.9 69.514V154.242C34.9 165.812 44.156 175.068 55.548 175.068H57.862C69.254 175.068 78.688 165.812 78.688 154.242V107.25H59.642V119.176H66.762V154.242C66.762 159.226 62.846 163.142 57.862 163.142H55.548C50.742 163.142 46.648 159.226 46.648 154.242V69.514C46.648 64.708 50.742 60.614 55.548 60.614H57.506C62.668 60.614 66.762 64.886 66.762 69.87V75.922H78.688V69.87C78.688 58.3 69.254 48.866 57.506 48.866Z" fill="#F4C85F"/>
<path d="M139.155 49.222H135.239C123.669 49.222 114.235 58.656 114.235 70.048V154.242C114.235 165.634 123.669 175.068 135.239 175.068H139.155C150.725 175.068 159.981 165.634 159.981 154.242V70.048C159.981 58.656 150.725 49.222 139.155 49.222ZM148.233 154.242C148.233 159.226 144.139 163.142 139.155 163.142H135.239C130.255 163.142 126.161 159.226 126.161 154.242V70.048C126.161 65.064 130.255 61.148 135.239 61.148H139.155C144.139 61.148 148.233 65.064 148.233 70.048V154.242Z" fill="#F4C85F"/>
<path d="M214.702 148.902C204.2 148.902 195.656 140.358 195.656 129.856V67.2C195.656 56.876 204.2 48.332 214.702 48.332C225.204 48.332 233.748 56.876 233.748 67.2V129.856C233.748 140.358 225.204 148.902 214.702 148.902ZM214.702 60.08C210.608 60.08 207.404 63.284 207.404 67.2V129.856C207.404 133.772 210.608 136.976 214.702 136.976C218.796 136.976 222 133.772 222 129.856V67.2C222 63.284 218.796 60.08 214.702 60.08ZM195.656 162.074V174H233.748V162.074H195.656Z" fill="#F4C85F"/>
<path d="M291.857 49.4H269.429V174H292.213C303.427 174 312.683 164.744 312.683 153.53V70.404C312.683 58.834 303.427 49.4 291.857 49.4ZM300.757 153.53C300.757 158.158 297.019 162.074 292.213 162.074H281.177V61.326H291.857C296.841 61.326 300.757 65.42 300.757 70.404V153.53Z" fill="#F4C85F"/>
<path d="M360.169 49.4H348.243V174H385.445V162.074H360.169V49.4Z" fill="#F4C85F"/>
<path d="M452.423 49.4L436.759 93.544L421.095 49.4H408.457L430.885 112.412V174H442.633V112.412L465.061 49.4H452.423Z" fill="#F4C85F"/>
<path d="M46.0536 193.6H34.4616V258H46.2376C52.0336 258 56.8176 253.216 56.8176 247.42V204.456C56.8176 198.476 52.0336 193.6 46.0536 193.6ZM50.6536 247.42C50.6536 249.812 48.7216 251.836 46.2376 251.836H40.5336V199.764H46.0536C48.6296 199.764 50.6536 201.88 50.6536 204.456V247.42Z" fill="#F4C85F"/>
<path d="M75.1967 258H92.2167V251.836H81.3607V229.664H89.2727V223.5H81.3607V199.672H92.2167V193.6H75.1967V258Z" fill="#F4C85F"/>
<path d="M131.055 193.6L123.971 238.588L116.887 193.6H110.631L120.751 258H127.099L137.219 193.6H131.055Z" fill="#F4C85F"/>
<path d="M155.589 258H172.609V251.836H161.753V229.664H169.665V223.5H161.753V199.672H172.609V193.6H155.589V258Z" fill="#F4C85F"/>
<path d="M197.187 193.6H191.023V258H210.251V251.836H197.187V193.6Z" fill="#F4C85F"/>
<path d="M241.494 193.508H239.47C233.49 193.508 228.614 198.384 228.614 204.272V247.788C228.614 253.676 233.49 258.552 239.47 258.552H241.494C247.474 258.552 252.258 253.676 252.258 247.788V204.272C252.258 198.384 247.474 193.508 241.494 193.508ZM246.186 247.788C246.186 250.364 244.07 252.388 241.494 252.388H239.47C236.894 252.388 234.778 250.364 234.778 247.788V204.272C234.778 201.696 236.894 199.672 239.47 199.672H241.494C244.07 199.672 246.186 201.696 246.186 204.272V247.788Z" fill="#F4C85F"/>
<path d="M282.013 193.6H270.697V258H276.861V229.388H282.013C287.901 229.388 292.777 224.512 292.777 218.532V204.364C292.777 198.384 287.901 193.6 282.013 193.6ZM286.613 218.532C286.613 221.108 284.589 223.224 282.013 223.224H276.861V199.672H282.013C284.589 199.672 286.613 201.788 286.613 204.364V218.532Z" fill="#F4C85F"/>
<path d="M337.382 193.6L327.446 247.328L317.51 193.6H311.162V258H317.326V220.648L324.134 258H330.666L337.566 220.648V258H343.73V193.6H337.382Z" fill="#F4C85F"/>
<path d="M362.14 258H379.16V251.836H368.304V229.664H376.216V223.5H368.304V199.672H379.16V193.6H362.14V258Z" fill="#F4C85F"/>
<path d="M423.794 258V193.6H417.63V237.76L403.922 193.876H397.574V258H403.738V213.656L417.538 258H423.794Z" fill="#F4C85F"/>
<path d="M440.376 199.672H449.852V258H455.924V199.672H465.4V193.6H440.376V199.672Z" fill="#F4C85F"/>
</g>
<path fill-rule="evenodd" clip-rule="evenodd" d="M504 6V253.976L419.575 300H6V6H504Z" stroke="#F4C85F" stroke-width="11"/>
<defs>
<clipPath id="clip0_852_53">
<rect width="432" height="211" fill="white" transform="translate(34 48)"/>
</clipPath>
</defs>
</svg>
