<svg width="510" height="306" viewBox="0 0 510 306" fill="none" xmlns="http://www.w3.org/2000/svg">
<path fill-rule="evenodd" clip-rule="evenodd" d="M504 6V253.976L419.575 300H6V6H504Z" stroke="white" stroke-width="11"/>
<path d="M58.0445 46.534H56.0865C44.6945 46.534 35.4385 55.79 35.4385 67.182V151.91C35.4385 163.48 44.6945 172.736 56.0865 172.736H58.4005C69.7925 172.736 79.2265 163.48 79.2265 151.91V104.918H60.1805V116.844H67.3005V151.91C67.3005 156.894 63.3845 160.81 58.4005 160.81H56.0865C51.2805 160.81 47.1865 156.894 47.1865 151.91V67.182C47.1865 62.376 51.2805 58.282 56.0865 58.282H58.0445C63.2065 58.282 67.3005 62.554 67.3005 67.538V73.59H79.2265V67.538C79.2265 55.968 69.7925 46.534 58.0445 46.534Z" fill="#FDFEFB"/>
<path d="M139.694 46.89H135.778C124.208 46.89 114.774 56.324 114.774 67.716V151.91C114.774 163.302 124.208 172.736 135.778 172.736H139.694C151.264 172.736 160.52 163.302 160.52 151.91V67.716C160.52 56.324 151.264 46.89 139.694 46.89ZM148.772 151.91C148.772 156.894 144.678 160.81 139.694 160.81H135.778C130.794 160.81 126.7 156.894 126.7 151.91V67.716C126.7 62.732 130.794 58.816 135.778 58.816H139.694C144.678 58.816 148.772 62.732 148.772 67.716V151.91Z" fill="#FDFEFB"/>
<path d="M215.241 146.57C204.739 146.57 196.195 138.026 196.195 127.524V64.868C196.195 54.544 204.739 46 215.241 46C225.743 46 234.287 54.544 234.287 64.868V127.524C234.287 138.026 225.743 146.57 215.241 146.57ZM215.241 57.748C211.147 57.748 207.943 60.952 207.943 64.868V127.524C207.943 131.44 211.147 134.644 215.241 134.644C219.335 134.644 222.539 131.44 222.539 127.524V64.868C222.539 60.952 219.335 57.748 215.241 57.748ZM196.195 159.742V171.668H234.287V159.742H196.195Z" fill="#FDFEFB"/>
<path d="M292.396 47.068H269.968V171.668H292.752C303.966 171.668 313.222 162.412 313.222 151.198V68.072C313.222 56.502 303.966 47.068 292.396 47.068ZM301.296 151.198C301.296 155.826 297.558 159.742 292.752 159.742H281.716V58.994H292.396C297.38 58.994 301.296 63.088 301.296 68.072V151.198Z" fill="#FDFEFB"/>
<path d="M360.708 47.068H348.782V171.668H385.984V159.742H360.708V47.068Z" fill="#FDFEFB"/>
<path d="M452.962 47.068L437.298 91.212L421.634 47.068H408.996L431.424 110.08V171.668H443.172V110.08L465.6 47.068H452.962Z" fill="#FDFEFB"/>
<path d="M46.592 191.268H35V255.668H46.776C52.572 255.668 57.356 250.884 57.356 245.088V202.124C57.356 196.144 52.572 191.268 46.592 191.268ZM51.192 245.088C51.192 247.48 49.26 249.504 46.776 249.504H41.072V197.432H46.592C49.168 197.432 51.192 199.548 51.192 202.124V245.088Z" fill="#FDFEFB"/>
<path d="M75.7354 255.668H92.7554V249.504H81.8993V227.332H89.8114V221.168H81.8993V197.34H92.7554V191.268H75.7354V255.668Z" fill="#FDFEFB"/>
<path d="M131.593 191.268L124.509 236.256L117.425 191.268H111.169L121.289 255.668H127.637L137.757 191.268H131.593Z" fill="#FDFEFB"/>
<path d="M156.127 255.668H173.147V249.504H162.291V227.332H170.203V221.168H162.291V197.34H173.147V191.268H156.127V255.668Z" fill="#FDFEFB"/>
<path d="M197.726 191.268H191.562V255.668H210.79V249.504H197.726V191.268Z" fill="#FDFEFB"/>
<path d="M242.032 191.176H240.008C234.028 191.176 229.152 196.052 229.152 201.94V245.456C229.152 251.344 234.028 256.22 240.008 256.22H242.032C248.012 256.22 252.796 251.344 252.796 245.456V201.94C252.796 196.052 248.012 191.176 242.032 191.176ZM246.724 245.456C246.724 248.032 244.608 250.056 242.032 250.056H240.008C237.432 250.056 235.316 248.032 235.316 245.456V201.94C235.316 199.364 237.432 197.34 240.008 197.34H242.032C244.608 197.34 246.724 199.364 246.724 201.94V245.456Z" fill="#FDFEFB"/>
<path d="M282.551 191.268H271.235V255.668H277.399V227.056H282.551C288.439 227.056 293.315 222.18 293.315 216.2V202.032C293.315 196.052 288.439 191.268 282.551 191.268ZM287.151 216.2C287.151 218.776 285.127 220.892 282.551 220.892H277.399V197.34H282.551C285.127 197.34 287.151 199.456 287.151 202.032V216.2Z" fill="#FDFEFB"/>
<path d="M337.921 191.268L327.985 244.996L318.049 191.268H311.701V255.668H317.865V218.316L324.673 255.668H331.205L338.105 218.316V255.668H344.269V191.268H337.921Z" fill="#FDFEFB"/>
<path d="M362.679 255.668H379.699V249.504H368.843V227.332H376.755V221.168H368.843V197.34H379.699V191.268H362.679V255.668Z" fill="#FDFEFB"/>
<path d="M424.333 255.668V191.268H418.169V235.428L404.461 191.544H398.113V255.668H404.277V211.324L418.077 255.668H424.333Z" fill="#FDFEFB"/>
<path d="M440.915 197.34H450.391V255.668H456.463V197.34H465.939V191.268H440.915V197.34Z" fill="#FDFEFB"/>
</svg>
